<svg version="1.1" xmlns="http://www.w3.org/2000/svg" xmlns:xlink="http://www.w3.org/1999/xlink" width="1006" height="448"><defs/><g transform="translate(0,0)"><g><rect fill="#FFFFFF" stroke="none" x="0" y="0" width="1006" height="448"/></g><g transform="translate(0,0) matrix(1,0,0,1,220,80)"><g transform="translate(4,4) scale(1.0071428571428571,1.0333333333333334)"><g><g transform="translate(0,0) scale(1.4,0.3)"><g><path fill="#000000" stroke="none" d="M 0 0 L 100 0 Q 100 0 100 0 L 100 100 Q 100 100 100 100 L 0 100 Q 0 100 0 100 L 0 0 Q 0 0 0 0 Z" opacity="0.294117647"/><g transform="scale(0.7142857142857143,3.3333333333333335)"><path fill="none" stroke="none" d="M 0 0 L 140 0 Q 140 0 140 0 L 140 30 Q 140 30 140 30 L 0 30 Q 0 30 0 30 L 0 0 Q 0 0 0 0 Z"/><path fill="none" stroke="rgb(0,0,0)" d="M 0 0 M 0 0 L 140 0 Q 140 0 140 0 L 140 30 Q 140 30 140 30 L 0 30 Q 0 30 0 30 L 0 0 Q 0 0 0 0 Z" stroke-opacity="0" stroke-miterlimit="10" stroke-width="2" opacity="0.294117647"/></g></g></g></g></g><g><g transform="translate(0,0) scale(1.4,0.3)"><g><path fill="#FFFFFF" stroke="none" d="M 0 0 L 100 0 Q 100 0 100 0 L 100 100 Q 100 100 100 100 L 0 100 Q 0 100 0 100 L 0 0 Q 0 0 0 0 Z"/><g transform="scale(0.7142857142857143,3.3333333333333335)"><path fill="none" stroke="none" d="M 0 0 L 140 0 Q 140 0 140 0 L 140 30 Q 140 30 140 30 L 0 30 Q 0 30 0 30 L 0 0 Q 0 0 0 0 Z"/><path fill="none" stroke="#000000" d="M 0 0 M 0 0 L 140 0 Q 140 0 140 0 L 140 30 Q 140 30 140 30 L 0 30 Q 0 30 0 30 L 0 0 Q 0 0 0 0 Z" stroke-miterlimit="10" stroke-width="2"/></g></g></g></g></g><g transform="scale(1,1) matrix(1,0,0,1,220,80) translate(8,8)"><text fill="#000000" stroke="none" font-family="Arial" font-size="12px" font-style="normal" font-weight="bold" text-decoration="none" x="14.6416015625" y="11">MetadataService</text></g><g transform="translate(0,0) matrix(1,0,0,1,220,110)"><g transform="translate(4,4) scale(1.0071428571428571,1.0138888888888888)"><g><g transform="translate(0,0) scale(1.4,0.72)"><g><path fill="#000000" stroke="none" d="M 0 0 L 100 0 Q 100 0 100 0 L 100 100 Q 100 100 100 100 L 0 100 Q 0 100 0 100 L 0 0 Q 0 0 0 0 Z" opacity="0.294117647"/><g transform="scale(0.7142857142857143,1.3888888888888888)"><path fill="none" stroke="none" d="M 0 0 L 140 0 Q 140 0 140 0 L 140 72 Q 140 72 140 72 L 0 72 Q 0 72 0 72 L 0 0 Q 0 0 0 0 Z"/><path fill="none" stroke="rgb(0,0,0)" d="M 0 0 M 0 0 L 140 0 Q 140 0 140 0 L 140 72 Q 140 72 140 72 L 0 72 Q 0 72 0 72 L 0 0 Q 0 0 0 0 Z" stroke-opacity="0" stroke-miterlimit="10" stroke-width="2" opacity="0.294117647"/></g></g></g></g></g><g><g transform="translate(0,0) scale(1.4,0.72)"><g><path fill="#FFFFFF" stroke="none" d="M 0 0 L 100 0 Q 100 0 100 0 L 100 100 Q 100 100 100 100 L 0 100 Q 0 100 0 100 L 0 0 Q 0 0 0 0 Z"/><g transform="scale(0.7142857142857143,1.3888888888888888)"><path fill="none" stroke="none" d="M 0 0 L 140 0 Q 140 0 140 0 L 140 72 Q 140 72 140 72 L 0 72 Q 0 72 0 72 L 0 0 Q 0 0 0 0 Z"/><path fill="none" stroke="#000000" d="M 0 0 M 0 0 L 140 0 Q 140 0 140 0 L 140 72 Q 140 72 140 72 L 0 72 Q 0 72 0 72 L 0 0 Q 0 0 0 0 Z" stroke-miterlimit="10" stroke-width="2"/></g></g></g></g></g><g transform="scale(1,1) matrix(1,0,0,1,220,110) translate(8,8)"><text fill="#000000" stroke="none" font-family="Arial" font-size="12px" font-style="normal" font-weight="normal" text-decoration="none" x="0" y="11">metadata</text><text fill="#000000" stroke="none" font-family="Arial" font-size="12px" font-style="normal" font-weight="normal" text-decoration="none" x="0" y="25">dimensionA</text><text fill="#000000" stroke="none" font-family="Arial" font-size="12px" font-style="normal" font-weight="normal" text-decoration="none" x="0" y="39">dimensionB</text><text fill="#000000" stroke="none" font-family="Arial" font-size="12px" font-style="normal" font-weight="normal" text-decoration="none" x="0" y="53">...</text></g><g transform="translate(0,0) matrix(1,0,0,1,220,182)"><g transform="translate(4,4) scale(1.0071428571428571,1.0116279069767442)"><g><g transform="translate(0,0) scale(1.4,0.86)"><g><path fill="#000000" stroke="none" d="M 0 0 L 100 0 Q 100 0 100 0 L 100 100 Q 100 100 100 100 L 0 100 Q 0 100 0 100 L 0 0 Q 0 0 0 0 Z" opacity="0.294117647"/><g transform="scale(0.7142857142857143,1.1627906976744187)"><path fill="none" stroke="none" d="M 0 0 L 140 0 Q 140 0 140 0 L 140 86 Q 140 86 140 86 L 0 86 Q 0 86 0 86 L 0 0 Q 0 0 0 0 Z"/><path fill="none" stroke="rgb(0,0,0)" d="M 0 0 M 0 0 L 140 0 Q 140 0 140 0 L 140 86 Q 140 86 140 86 L 0 86 Q 0 86 0 86 L 0 0 Q 0 0 0 0 Z" stroke-opacity="0" stroke-miterlimit="10" stroke-width="2" opacity="0.294117647"/></g></g></g></g></g><g><g transform="translate(0,0) scale(1.4,0.86)"><g><path fill="#FFFFFF" stroke="none" d="M 0 0 L 100 0 Q 100 0 100 0 L 100 100 Q 100 100 100 100 L 0 100 Q 0 100 0 100 L 0 0 Q 0 0 0 0 Z"/><g transform="scale(0.7142857142857143,1.1627906976744187)"><path fill="none" stroke="none" d="M 0 0 L 140 0 Q 140 0 140 0 L 140 86 Q 140 86 140 86 L 0 86 Q 0 86 0 86 L 0 0 Q 0 0 0 0 Z"/><path fill="none" stroke="#000000" d="M 0 0 M 0 0 L 140 0 Q 140 0 140 0 L 140 86 Q 140 86 140 86 L 0 86 Q 0 86 0 86 L 0 0 Q 0 0 0 0 Z" stroke-miterlimit="10" stroke-width="2"/></g></g></g></g></g><g transform="scale(1,1) matrix(1,0,0,1,220,182) translate(8,8)"><text fill="#000000" stroke="none" font-family="Arial" font-size="12px" font-style="normal" font-weight="normal" text-decoration="none" x="0" y="11">getDimensionA()</text><text fill="#000000" stroke="none" font-family="Arial" font-size="12px" font-style="normal" font-weight="normal" text-decoration="none" x="0" y="25">getDimensionB()</text><text fill="#000000" stroke="none" font-family="Arial" font-size="12px" font-style="normal" font-weight="normal" text-decoration="none" x="0" y="39">setFilterDimensionA()</text><text fill="#000000" stroke="none" font-family="Arial" font-size="12px" font-style="normal" font-weight="normal" text-decoration="none" x="0" y="53">setFilterDimensionB()</text><text fill="#000000" stroke="none" font-family="Arial" font-size="12px" font-style="normal" font-weight="normal" text-decoration="none" x="0" y="67">...</text></g><g transform="translate(0,0) matrix(1,0,0,1,610,30)"><g transform="translate(4,4) scale(1.0071428571428571,1.0333333333333334)"><g><g transform="translate(0,0) scale(1.4,0.3)"><g><path fill="#000000" stroke="none" d="M 0 0 L 100 0 Q 100 0 100 0 L 100 100 Q 100 100 100 100 L 0 100 Q 0 100 0 100 L 0 0 Q 0 0 0 0 Z" opacity="0.294117647"/><g transform="scale(0.7142857142857143,3.3333333333333335)"><path fill="none" stroke="none" d="M 0 0 L 140 0 Q 140 0 140 0 L 140 30 Q 140 30 140 30 L 0 30 Q 0 30 0 30 L 0 0 Q 0 0 0 0 Z"/><path fill="none" stroke="rgb(0,0,0)" d="M 0 0 M 0 0 L 140 0 Q 140 0 140 0 L 140 30 Q 140 30 140 30 L 0 30 Q 0 30 0 30 L 0 0 Q 0 0 0 0 Z" stroke-opacity="0" stroke-miterlimit="10" stroke-width="2" opacity="0.294117647"/></g></g></g></g></g><g><g transform="translate(0,0) scale(1.4,0.3)"><g><path fill="#FFFFFF" stroke="none" d="M 0 0 L 100 0 Q 100 0 100 0 L 100 100 Q 100 100 100 100 L 0 100 Q 0 100 0 100 L 0 0 Q 0 0 0 0 Z"/><g transform="scale(0.7142857142857143,3.3333333333333335)"><path fill="none" stroke="none" d="M 0 0 L 140 0 Q 140 0 140 0 L 140 30 Q 140 30 140 30 L 0 30 Q 0 30 0 30 L 0 0 Q 0 0 0 0 Z"/><path fill="none" stroke="#000000" d="M 0 0 M 0 0 L 140 0 Q 140 0 140 0 L 140 30 Q 140 30 140 30 L 0 30 Q 0 30 0 30 L 0 0 Q 0 0 0 0 Z" stroke-miterlimit="10" stroke-width="2"/></g></g></g></g></g><g transform="scale(1,1) matrix(1,0,0,1,610,30) translate(8,8)"><text fill="#000000" stroke="none" font-family="Arial" font-size="12px" font-style="normal" font-weight="bold" text-decoration="none" x="37.671875" y="11">WidgetA</text></g><g transform="translate(0,0) matrix(1,0,0,1,610,60)"><g transform="translate(4,4) scale(1.0071428571428571,1.0333333333333334)"><g><g transform="translate(0,0) scale(1.4,0.3)"><g><path fill="#000000" stroke="none" d="M 0 0 L 100 0 Q 100 0 100 0 L 100 100 Q 100 100 100 100 L 0 100 Q 0 100 0 100 L 0 0 Q 0 0 0 0 Z" opacity="0.294117647"/><g transform="scale(0.7142857142857143,3.3333333333333335)"><path fill="none" stroke="none" d="M 0 0 L 140 0 Q 140 0 140 0 L 140 30 Q 140 30 140 30 L 0 30 Q 0 30 0 30 L 0 0 Q 0 0 0 0 Z"/><path fill="none" stroke="rgb(0,0,0)" d="M 0 0 M 0 0 L 140 0 Q 140 0 140 0 L 140 30 Q 140 30 140 30 L 0 30 Q 0 30 0 30 L 0 0 Q 0 0 0 0 Z" stroke-opacity="0" stroke-miterlimit="10" stroke-width="2" opacity="0.294117647"/></g></g></g></g></g><g><g transform="translate(0,0) scale(1.4,0.3)"><g><path fill="#FFFFFF" stroke="none" d="M 0 0 L 100 0 Q 100 0 100 0 L 100 100 Q 100 100 100 100 L 0 100 Q 0 100 0 100 L 0 0 Q 0 0 0 0 Z"/><g transform="scale(0.7142857142857143,3.3333333333333335)"><path fill="none" stroke="none" d="M 0 0 L 140 0 Q 140 0 140 0 L 140 30 Q 140 30 140 30 L 0 30 Q 0 30 0 30 L 0 0 Q 0 0 0 0 Z"/><path fill="none" stroke="#000000" d="M 0 0 M 0 0 L 140 0 Q 140 0 140 0 L 140 30 Q 140 30 140 30 L 0 30 Q 0 30 0 30 L 0 0 Q 0 0 0 0 Z" stroke-miterlimit="10" stroke-width="2"/></g></g></g></g></g><g transform="scale(1,1) matrix(1,0,0,1,610,60) translate(8,8)"><text fill="#000000" stroke="none" font-family="Arial" font-size="12px" font-style="normal" font-weight="normal" text-decoration="none" x="0" y="11">thisMetadata</text></g><g transform="translate(0,0) matrix(1,0,0,1,610,90)"><g transform="translate(4,4) scale(1.0071428571428571,1.0078125)"><g><g transform="translate(0,0) scale(1.4,1.28)"><g><path fill="#000000" stroke="none" d="M 0 0 L 100 0 Q 100 0 100 0 L 100 100 Q 100 100 100 100 L 0 100 Q 0 100 0 100 L 0 0 Q 0 0 0 0 Z" opacity="0.294117647"/><g transform="scale(0.7142857142857143,0.78125)"><path fill="none" stroke="none" d="M 0 0 L 140 0 Q 140 0 140 0 L 140 128 Q 140 128 140 128 L 0 128 Q 0 128 0 128 L 0 0 Q 0 0 0 0 Z"/><path fill="none" stroke="rgb(0,0,0)" d="M 0 0 M 0 0 L 140 0 Q 140 0 140 0 L 140 128 Q 140 128 140 128 L 0 128 Q 0 128 0 128 L 0 0 Q 0 0 0 0 Z" stroke-opacity="0" stroke-miterlimit="10" stroke-width="2" opacity="0.294117647"/></g></g></g></g></g><g><g transform="translate(0,0) scale(1.4,1.28)"><g><path fill="#FFFFFF" stroke="none" d="M 0 0 L 100 0 Q 100 0 100 0 L 100 100 Q 100 100 100 100 L 0 100 Q 0 100 0 100 L 0 0 Q 0 0 0 0 Z"/><g transform="scale(0.7142857142857143,0.78125)"><path fill="none" stroke="none" d="M 0 0 L 140 0 Q 140 0 140 0 L 140 128 Q 140 128 140 128 L 0 128 Q 0 128 0 128 L 0 0 Q 0 0 0 0 Z"/><path fill="none" stroke="#000000" d="M 0 0 M 0 0 L 140 0 Q 140 0 140 0 L 140 128 Q 140 128 140 128 L 0 128 Q 0 128 0 128 L 0 0 Q 0 0 0 0 Z" stroke-miterlimit="10" stroke-width="2"/></g></g></g></g></g><g transform="scale(1,1) matrix(1,0,0,1,610,90) translate(8,8)"><text fill="#000000" stroke="none" font-family="Arial" font-size="12px" font-style="normal" font-weight="normal" text-decoration="none" x="0" y="11">init()</text><text fill="#000000" stroke="none" font-family="Arial" font-size="12px" font-style="normal" font-weight="normal" text-decoration="none" x="0" y="25">getData</text><text fill="#000000" stroke="none" font-family="Arial" font-size="12px" font-style="normal" font-weight="normal" text-decoration="none" x="0" y="39">&#160;</text><text fill="#000000" stroke="none" font-family="Arial" font-size="12px" font-style="normal" font-weight="normal" text-decoration="none" x="3.333984375" y="39">$on('changeEvent')</text><text fill="#000000" stroke="none" font-family="Arial" font-size="12px" font-style="normal" font-weight="normal" text-decoration="none" x="0" y="53">&#160;$watch('foo')</text><text fill="#000000" stroke="none" font-family="Arial" font-size="12px" font-style="normal" font-weight="normal" text-decoration="none" x="0" y="67">...</text><text fill="#000000" stroke="none" font-family="Arial" font-size="12px" font-style="normal" font-weight="normal" text-decoration="none" x="0" y="81">&#160;</text></g><g transform="translate(0,0) matrix(1,0,0,1,610,240)"><g transform="translate(4,4) scale(1.0071428571428571,1.0333333333333334)"><g><g transform="translate(0,0) scale(1.4,0.3)"><g><path fill="#000000" stroke="none" d="M 0 0 L 100 0 Q 100 0 100 0 L 100 100 Q 100 100 100 100 L 0 100 Q 0 100 0 100 L 0 0 Q 0 0 0 0 Z" opacity="0.294117647"/><g transform="scale(0.7142857142857143,3.3333333333333335)"><path fill="none" stroke="none" d="M 0 0 L 140 0 Q 140 0 140 0 L 140 30 Q 140 30 140 30 L 0 30 Q 0 30 0 30 L 0 0 Q 0 0 0 0 Z"/><path fill="none" stroke="rgb(0,0,0)" d="M 0 0 M 0 0 L 140 0 Q 140 0 140 0 L 140 30 Q 140 30 140 30 L 0 30 Q 0 30 0 30 L 0 0 Q 0 0 0 0 Z" stroke-opacity="0" stroke-miterlimit="10" stroke-width="2" opacity="0.294117647"/></g></g></g></g></g><g><g transform="translate(0,0) scale(1.4,0.3)"><g><path fill="#FFFFFF" stroke="none" d="M 0 0 L 100 0 Q 100 0 100 0 L 100 100 Q 100 100 100 100 L 0 100 Q 0 100 0 100 L 0 0 Q 0 0 0 0 Z"/><g transform="scale(0.7142857142857143,3.3333333333333335)"><path fill="none" stroke="none" d="M 0 0 L 140 0 Q 140 0 140 0 L 140 30 Q 140 30 140 30 L 0 30 Q 0 30 0 30 L 0 0 Q 0 0 0 0 Z"/><path fill="none" stroke="#000000" d="M 0 0 M 0 0 L 140 0 Q 140 0 140 0 L 140 30 Q 140 30 140 30 L 0 30 Q 0 30 0 30 L 0 0 Q 0 0 0 0 Z" stroke-miterlimit="10" stroke-width="2"/></g></g></g></g></g><g transform="scale(1,1) matrix(1,0,0,1,610,240) translate(8,8)"><text fill="#000000" stroke="none" font-family="Arial" font-size="12px" font-style="normal" font-weight="bold" text-decoration="none" x="37.671875" y="11">WidgetB</text></g><g transform="translate(0,0) matrix(1,0,0,1,610,270)"><g transform="translate(4,4) scale(1.0071428571428571,1.0333333333333334)"><g><g transform="translate(0,0) scale(1.4,0.3)"><g><path fill="#000000" stroke="none" d="M 0 0 L 100 0 Q 100 0 100 0 L 100 100 Q 100 100 100 100 L 0 100 Q 0 100 0 100 L 0 0 Q 0 0 0 0 Z" opacity="0.294117647"/><g transform="scale(0.7142857142857143,3.3333333333333335)"><path fill="none" stroke="none" d="M 0 0 L 140 0 Q 140 0 140 0 L 140 30 Q 140 30 140 30 L 0 30 Q 0 30 0 30 L 0 0 Q 0 0 0 0 Z"/><path fill="none" stroke="rgb(0,0,0)" d="M 0 0 M 0 0 L 140 0 Q 140 0 140 0 L 140 30 Q 140 30 140 30 L 0 30 Q 0 30 0 30 L 0 0 Q 0 0 0 0 Z" stroke-opacity="0" stroke-miterlimit="10" stroke-width="2" opacity="0.294117647"/></g></g></g></g></g><g><g transform="translate(0,0) scale(1.4,0.3)"><g><path fill="#FFFFFF" stroke="none" d="M 0 0 L 100 0 Q 100 0 100 0 L 100 100 Q 100 100 100 100 L 0 100 Q 0 100 0 100 L 0 0 Q 0 0 0 0 Z"/><g transform="scale(0.7142857142857143,3.3333333333333335)"><path fill="none" stroke="none" d="M 0 0 L 140 0 Q 140 0 140 0 L 140 30 Q 140 30 140 30 L 0 30 Q 0 30 0 30 L 0 0 Q 0 0 0 0 Z"/><path fill="none" stroke="#000000" d="M 0 0 M 0 0 L 140 0 Q 140 0 140 0 L 140 30 Q 140 30 140 30 L 0 30 Q 0 30 0 30 L 0 0 Q 0 0 0 0 Z" stroke-miterlimit="10" stroke-width="2"/></g></g></g></g></g><g transform="scale(1,1) matrix(1,0,0,1,610,270) translate(8,8)"><text fill="#000000" stroke="none" font-family="Arial" font-size="12px" font-style="normal" font-weight="normal" text-decoration="none" x="0" y="11">thisMetadata</text></g><g transform="translate(0,0) matrix(1,0,0,1,610,300)"><g transform="translate(4,4) scale(1.0071428571428571,1.0078125)"><g><g transform="translate(0,0) scale(1.4,1.28)"><g><path fill="#000000" stroke="none" d="M 0 0 L 100 0 Q 100 0 100 0 L 100 100 Q 100 100 100 100 L 0 100 Q 0 100 0 100 L 0 0 Q 0 0 0 0 Z" opacity="0.294117647"/><g transform="scale(0.7142857142857143,0.78125)"><path fill="none" stroke="none" d="M 0 0 L 140 0 Q 140 0 140 0 L 140 128 Q 140 128 140 128 L 0 128 Q 0 128 0 128 L 0 0 Q 0 0 0 0 Z"/><path fill="none" stroke="rgb(0,0,0)" d="M 0 0 M 0 0 L 140 0 Q 140 0 140 0 L 140 128 Q 140 128 140 128 L 0 128 Q 0 128 0 128 L 0 0 Q 0 0 0 0 Z" stroke-opacity="0" stroke-miterlimit="10" stroke-width="2" opacity="0.294117647"/></g></g></g></g></g><g><g transform="translate(0,0) scale(1.4,1.28)"><g><path fill="#FFFFFF" stroke="none" d="M 0 0 L 100 0 Q 100 0 100 0 L 100 100 Q 100 100 100 100 L 0 100 Q 0 100 0 100 L 0 0 Q 0 0 0 0 Z"/><g transform="scale(0.7142857142857143,0.78125)"><path fill="none" stroke="none" d="M 0 0 L 140 0 Q 140 0 140 0 L 140 128 Q 140 128 140 128 L 0 128 Q 0 128 0 128 L 0 0 Q 0 0 0 0 Z"/><path fill="none" stroke="#000000" d="M 0 0 M 0 0 L 140 0 Q 140 0 140 0 L 140 128 Q 140 128 140 128 L 0 128 Q 0 128 0 128 L 0 0 Q 0 0 0 0 Z" stroke-miterlimit="10" stroke-width="2"/></g></g></g></g></g><g transform="scale(1,1) matrix(1,0,0,1,610,300) translate(8,8)"><text fill="#000000" stroke="none" font-family="Arial" font-size="12px" font-style="normal" font-weight="normal" text-decoration="none" x="0" y="11">init()</text><text fill="#000000" stroke="none" font-family="Arial" font-size="12px" font-style="normal" font-weight="normal" text-decoration="none" x="0" y="25">getData</text><text fill="#000000" stroke="none" font-family="Arial" font-size="12px" font-style="normal" font-weight="normal" text-decoration="none" x="0" y="39">&#160;</text><text fill="#000000" stroke="none" font-family="Arial" font-size="12px" font-style="normal" font-weight="normal" text-decoration="none" x="3.333984375" y="39">$on('changeEvent')</text><text fill="#000000" stroke="none" font-family="Arial" font-size="12px" font-style="normal" font-weight="normal" text-decoration="none" x="0" y="53">&#160;$watch('foo')</text><text fill="#000000" stroke="none" font-family="Arial" font-size="12px" font-style="normal" font-weight="normal" text-decoration="none" x="0" y="67">...</text><text fill="#000000" stroke="none" font-family="Arial" font-size="12px" font-style="normal" font-weight="normal" text-decoration="none" x="0" y="81">&#160;</text></g><g transform="translate(0.5,0.5) matrix(1,0,0,1,840,30)"><g><g transform="translate(0,0) scale(1.4,0.7)"><g><g transform="scale(0.7142857142857143,1.4285714285714286)"><path fill="#FFFFFF" stroke="#000000" d="M 0 0 L 130 0 L 140 10 L 130 10 L 130 0 L 140 10 L 140 70 L 0 70 Z" stroke-linejoin="round" stroke-miterlimit="10"/></g></g></g></g></g><g transform="scale(1,1) matrix(1,0,0,1,842,30) translate(8,28)"><text fill="#000000" stroke="none" font-family="Arial" font-size="12px" font-style="normal" font-weight="normal" text-decoration="none" x="8.3173828125" y="11">own Html Template</text></g><g transform="translate(0.5,0.5) matrix(1,0,0,1,840,240)"><g><g transform="translate(0,0) scale(1.4,0.7)"><g><g transform="scale(0.7142857142857143,1.4285714285714286)"><path fill="#FFFFFF" stroke="#000000" d="M 0 0 L 130 0 L 140 10 L 130 10 L 130 0 L 140 10 L 140 70 L 0 70 Z" stroke-linejoin="round" stroke-miterlimit="10"/></g></g></g></g></g><g transform="scale(1,1) matrix(1,0,0,1,842,240) translate(8,28)"><text fill="#000000" stroke="none" font-family="Arial" font-size="12px" font-style="normal" font-weight="normal" text-decoration="none" x="8.3173828125" y="11">own Html Template</text></g><g transform="matrix(1,0,0,1,746,61)"><g transform="translate(0,0)"><g transform="translate(-753,-61) translate(7,0) matrix(1,0,0,1,0,0)"><g><path fill="none" stroke="#000000" d="M 750 124 L 795 124 L 795 65 L 840 65" stroke-miterlimit="10"/></g></g></g></g><g transform="matrix(1,0,0,1,746,271)"><g transform="translate(0,0)"><g transform="translate(-733,-274) translate(-13,3) matrix(1,0,0,1,0,0)"><g><path fill="none" stroke="#000000" d="M 750 334 L 795 334 L 795 275 L 840 275" stroke-miterlimit="10"/></g></g></g></g><g transform="matrix(1,0,0,1,356,120)"><g transform="translate(0,0)"><g transform="translate(-384,-146) translate(28,26) matrix(1,0,0,1,0,0)"><g><path fill="none" stroke="#000000" d="M 360 174 M 360 174 L 363.92232270276367 173.21553545944727 M 363.92232270276367 173.21553545944727 M 367.84464540552733 172.43107091889453 L 371.766968108291 171.6466063783418 M 371.766968108291 171.6466063783418 M 375.68929081105466 170.86214183778907 L 379.6116135138183 170.07767729723633 M 379.6116135138183 170.07767729723633 M 383.533936216582 169.2932127566836 L 387.45625891934566 168.50874821613087 M 387.45625891934566 168.50874821613087 M 391.3785816221093 167.72428367557814 L 395.300904324873 166.9398191350254 M 395.300904324873 166.9398191350254 M 399.22322702763665 166.15535459447267 L 403.1455497304003 165.37089005391994 M 403.1455497304003 165.37089005391994 M 407.067872433164 164.5864255133672 L 410.99019513592765 163.80196097281447 M 410.99019513592765 163.80196097281447 M 414.9125178386913 163.01749643226174 L 418.834840541455 162.233031891709 M 418.834840541455 162.233031891709 M 422.75716324421865 161.44856735115627 L 426.6794859469823 160.66410281060354 M 426.6794859469823 160.66410281060354 M 430.601808649746 159.8796382700508 L 434.52413135250964 159.09517372949807 M 434.52413135250964 159.09517372949807 M 438.4464540552733 158.31070918894534 L 442.368776758037 157.5262446483926 M 442.368776758037 157.5262446483926 M 446.29109946080064 156.74178010783987 L 450.2134221635643 155.95731556728714 M 450.2134221635643 155.95731556728714 M 454.13574486632797 155.1728510267344 L 458.05806756909163 154.38838648618167 M 458.05806756909163 154.38838648618167 M 461.9803902718553 153.60392194562894 L 465.90271297461896 152.8194574050762 M 465.90271297461896 152.8194574050762 M 469.82503567738263 152.03499286452347 L 473.7473583801463 151.25052832397074 M 473.7473583801463 151.25052832397074 M 477.66968108290996 150.466063783418 L 481.5920037856736 149.68159924286527 M 481.5920037856736 149.68159924286527 M 485.5143264884373 148.89713470231254 L 489.43664919120096 148.1126701617598 M 489.43664919120096 148.1126701617598 M 493.3589718939646 147.32820562120708 L 497.2812945967283 146.54374108065434 M 497.2812945967283 146.54374108065434 M 501.20361729949195 145.7592765401016 L 505.1259400022556 144.97481199954888 M 505.1259400022556 144.97481199954888 M 509.0482627050193 144.19034745899614 L 512.970585407783 143.4058829184434 M 512.970585407783 143.4058829184434 M 516.8929081105467 142.62141837789068 L 520.8152308133104 141.83695383733794 M 520.8152308133104 141.83695383733794 M 524.7375535160742 141.0524892967852 L 528.6598762188379 140.26802475623248 M 528.6598762188379 140.26802475623248 M 532.5821989216016 139.48356021567974 L 536.5045216243653 138.699095675127 M 536.5045216243653 138.699095675127 M 540.4268443271291 137.91463113457428 L 544.3491670298928 137.13016659402155 M 544.3491670298928 137.13016659402155 M 548.2714897326565 136.3457020534688 L 552.1938124354202 135.56123751291608 M 552.1938124354202 135.56123751291608 M 556.116135138184 134.77677297236335 L 560.0384578409477 133.9923084318106 M 560.0384578409477 133.9923084318106 M 563.9607805437114 133.20784389125788 L 567.8831032464751 132.42337935070512 M 567.8831032464751 132.42337935070512 M 571.8054259492388 131.63891481015236 L 575.7277486520026 130.8544502695996 M 575.7277486520026 130.8544502695996 M 579.6500713547663 130.06998572904683 L 583.57239405753 129.28552118849407 M 583.57239405753 129.28552118849407 M 587.4947167602937 128.50105664794134 L 591.4170394630574 127.71659210738859 M 591.4170394630574 127.71659210738859 M 595.3393621658212 126.93212756683585 L 599.2616848685849 126.14766302628308 M 599.2616848685849 126.14766302628308 M 603.1840075713486 125.36319848573032 L 607.1063302741123 124.57873394517756 M 607.1063302741123 124.57873394517756" stroke-miterlimit="10"/></g></g></g></g><g transform="matrix(1,0,0,1,356,170)"><g transform="translate(0,0)"><g transform="translate(-406,-189) translate(50,19) matrix(1,0,0,1,0,0)"><g><path fill="none" stroke="#000000" d="M 360 174 M 360 174 L 363.36908560264607 176.15621478569346 M 363.36908560264607 176.15621478569346 M 366.73817120529213 178.31242957138693 L 370.1072568079382 180.4686443570804 M 370.1072568079382 180.4686443570804 M 373.47634241058427 182.62485914277386 L 376.84542801323033 184.78107392846732 M 376.84542801323033 184.78107392846732 M 380.2145136158764 186.9372887141608 L 383.58359921852247 189.09350349985425 M 383.58359921852247 189.09350349985425 M 386.95268482116853 191.24971828554771 L 390.3217704238146 193.40593307124118 M 390.3217704238146 193.40593307124118 M 393.69085602646066 195.56214785693464 L 397.05994162910673 197.7183626426281 M 397.05994162910673 197.7183626426281 M 400.4290272317528 199.87457742832157 L 403.79811283439886 202.03079221401504 M 403.79811283439886 202.03079221401504 M 407.16719843704493 204.1870069997085 L 410.536284039691 206.34322178540197 M 410.536284039691 206.34322178540197 M 413.90536964233706 208.49943657109543 L 417.27445524498313 210.6556513567889 M 417.27445524498313 210.6556513567889 M 420.6435408476292 212.81186614248236 L 424.01262645027526 214.96808092817582 M 424.01262645027526 214.96808092817582 M 427.38171205292133 217.1242957138693 L 430.7507976555674 219.28051049956275 M 430.7507976555674 219.28051049956275 M 434.11988325821346 221.43672528525622 L 437.48896886085953 223.59294007094968 M 437.48896886085953 223.59294007094968 M 440.8580544635056 225.74915485664314 L 444.22714006615166 227.9053696423366 M 444.22714006615166 227.9053696423366 M 447.59622566879773 230.06158442803007 L 450.9653112714438 232.21779921372354 M 450.9653112714438 232.21779921372354 M 454.33439687408986 234.374013999417 L 457.7034824767359 236.53022878511047 M 457.7034824767359 236.53022878511047 M 461.072568079382 238.68644357080393 L 464.44165368202806 240.8426583564974 M 464.44165368202806 240.8426583564974 M 467.8107392846741 242.99887314219086 L 471.1798248873202 245.15508792788435 M 471.1798248873202 245.15508792788435 M 474.54891048996626 247.31130271357785 L 477.9179960926123 249.46751749927134 M 477.9179960926123 249.46751749927134 M 481.2870816952584 251.62373228496483 L 484.65616729790446 253.77994707065832 M 484.65616729790446 253.77994707065832 M 488.0252529005505 255.93616185635182 L 491.3943385031966 258.0923766420453 M 491.3943385031966 258.0923766420453 M 494.76342410584266 260.24859142773875 L 498.13250970848867 262.4048062134322 M 498.13250970848867 262.4048062134322 M 501.5015953111347 264.5610209991257 L 504.8706809137807 266.71723578481914 M 504.8706809137807 266.71723578481914 M 508.2397665164267 268.8734505705126 L 511.6088521190727 271.02966535620607 M 511.6088521190727 271.02966535620607 M 514.9779377217187 273.18588014189953 L 518.3470233243647 275.342094927593 M 518.3470233243647 275.342094927593 M 521.7161089270107 277.49830971328646 L 525.0851945296567 279.6545244989799 M 525.0851945296567 279.6545244989799 M 528.4542801323028 281.8107392846734 L 531.8233657349488 283.96695407036685 M 531.8233657349488 283.96695407036685 M 535.1924513375948 286.1231688560603 L 538.5615369402408 288.2793836417538 M 538.5615369402408 288.2793836417538 M 541.9306225428868 290.43559842744725 L 545.2997081455328 292.5918132131407 M 545.2997081455328 292.5918132131407 M 548.6687937481788 294.7480279988342 L 552.0378793508248 296.90424278452764 M 552.0378793508248 296.90424278452764 M 555.4069649534708 299.0604575702211 L 558.7760505561168 301.21667235591457 M 558.7760505561168 301.21667235591457 M 562.1451361587629 303.37288714160803 L 565.5142217614089 305.5291019273015 M 565.5142217614089 305.5291019273015 M 568.8833073640549 307.68531671299496 L 572.2523929667009 309.8415314986884 M 572.2523929667009 309.8415314986884 M 575.6214785693469 311.9977462843819 L 578.9905641719929 314.15396107007535 M 578.9905641719929 314.15396107007535 M 582.3596497746389 316.3101758557688 L 585.7287353772849 318.4663906414623 M 585.7287353772849 318.4663906414623 M 589.0978209799309 320.62260542715575 L 592.4669065825769 322.7788202128492 M 592.4669065825769 322.7788202128492 M 595.835992185223 324.9350349985427 L 599.205077787869 327.09124978423614 M 599.205077787869 327.09124978423614 M 602.574163390515 329.2474645699296 L 605.943248993161 331.40367935562307 M 605.943248993161 331.40367935562307 M 609.312334595807 333.55989414131653 L 610 334" stroke-miterlimit="10"/></g></g></g></g></g></svg>